<?xml version="1.0" encoding="utf-8"?>
<!-- Generator: Adobe Illustrator 22.0.1, SVG Export Plug-In . SVG Version: 6.00 Build 0)  -->
<svg version="1.1" id="Layer_1" xmlns="http://www.w3.org/2000/svg" xmlns:xlink="http://www.w3.org/1999/xlink" x="0px" y="0px"
	 viewBox="0 0 189 189" style="enable-background:new 0 0 189 189;" xml:space="preserve">
<style type="text/css">
	.st0{fill:#FFFFFF;}
	.st1{fill:#120F10;}
</style>
<g id="Layer_2_1_">
</g>
<g>
	<rect class="st0" width="189" height="189"/>
	<path class="st1" d="M130.4,89.8c-2.2-9.2-5.2-13-6-14c-1.5-1.9-3.7-3.9-5.2-5.3c-5-4.7-5.7-4.4-7.1-6.1c-5.1-6.2-4.9-20.7,0.9-28
		c3.2-4,2.9-9-1.2-12.3c-3.3-2.6-6.6-5.3-10.3-7c-6-2.7-12.2-3.4-17.8,1.5c-2.9,2.4-6.1,4.3-9.9,5.4c-4.4,1.3-8.9,0.8-13.3,1.2
		c-2.3,0.2-4.4,0.6-4.3,3.6c0.1,2.7,1.9,3.7,4.3,3.9c2.2,0.2,4.2-0.3,6.3-1.1c5.3-2.1,14.6,0.8,18,5.4c3.3,4.4,2.6,9.4-2,12.5
		c-1.8,1.2-2.9,2.6-3.9,4.4C78,55.5,78.2,57,78.1,58c-0.2,2.9-2,5.8-5.7,11.5c-0.1,0.2-0.9,1.3-2.4,3.5c-4.1,6-4.6,6.6-5.5,8.1
		c0,0-1.9,3.1-3.4,7.3c-3.2,8.6-2.8,16.4-2.3,23.7c0.4,6.9,0.9,14,3.6,14.6c3,0.7,6.5-7.2,9.4-6.2c1.8,0.6,1,4.1,3.6,7.4
		c0.2,0.2,0.4,0.5,0.7,0.7c-1.5,1.8-1.4,5.7-1.4,10c0.1,2.3,0.3,3.5,0.2,6.6c-0.1,1.9-0.2,3.2-0.4,4.7c-0.5,4.5-0.9,5.2-1.5,9.7
		c-0.5,4.1-0.2,3.8-0.5,4.9c-1.5,4.4-5.5,5.9-5,7.2c0.2,0.6,1.9,0.6,5.1,0.8c4.3,0.2,4.7-0.2,4.9-0.5c0.8-1.2-1.2-2.9-1.8-6.1
		c-0.5-2.5,0.4-3.1,1.8-9.2c1.2-5.4,1.6-9.8,1.8-11.7c0.3-3.8,0.1-3.3,0.4-5.3c0.6-3.7,1.7-6.1,2.2-7.8c0.5,0.2,1.1,0.4,1.8,0.6
		c7.5,2.2,14.8,2,20.3,1.1c2.2-0.4,6-1.1,10.1-3c0.1,0.2,0.1,0.5,0.2,0.7c0,0,0.2,0.7,0.9,4.8c0.6,3.4,0.3,4.4,0.6,11.8
		c0.1,1.6,0.1,3.6,0.3,6.2c0.6,8.1,1.2,8.1,0.8,10.4c-0.9,5.4-4.8,7.9-3.7,9.2c0.6,0.8,1.9,0,6.2,0c3.2,0,4.2,0.5,4.6-0.1
		c0.9-1.1-2-3.5-3.5-7.5c-0.9-2.5-0.3-2.8-0.2-13.7c0.1-7.4-0.1-10.9-0.2-12c-0.2-3.3-0.4-3.1-0.4-5.4c-0.1-4,0.2-6.2,0-7.6
		c1.2-0.8,2.3-1.7,3.5-2.7c2-1.8,5.3-4.8,7.5-9.7C134.4,106.9,132.6,99.1,130.4,89.8z M83.7,85.8c-2.1,4.6-3,4.5-5.5,9.8
		c-1.7,3.6-1.6,4.3-3.5,8.5c-2.1,4.4-3.9,8.2-4.9,8c-1.4-0.3,1.2-7.4-0.6-18.2c-0.6-3.9-1.6-6.6,0-8.7c1-1.4,2.2-1,6.7-3.1
		c1.9-0.9,3.5-1.7,5.2-3c3.4-2.7,4.2-5.1,5-4.8C87,74.6,86.2,80.3,83.7,85.8z"/>
</g>
</svg>
